<?xml version="1.0" encoding="UTF-8"?>
<!DOCTYPE svg PUBLIC "-//W3C//DTD SVG 1.1//EN" "http://www.w3.org/Graphics/SVG/1.1/DTD/svg11.dtd">
<!-- Creator: CorelDRAW 2021 (64-Bit) -->
<svg xmlns="http://www.w3.org/2000/svg" xml:space="preserve" width="3.59553in" height="1.5in" version="1.1" style="shape-rendering:geometricPrecision; text-rendering:geometricPrecision; image-rendering:optimizeQuality; fill-rule:evenodd; clip-rule:evenodd"
viewBox="0 0 3595.53 1500"
 xmlns:xlink="http://www.w3.org/1999/xlink"
 xmlns:xodm="http://www.corel.com/coreldraw/odm/2003">
 <defs>
  <style type="text/css">
   <![CDATA[
    .fil2 {fill:#142059}
    .fil1 {fill:#DCF0FA}
    .fil0 {fill:#142059;fill-rule:nonzero}
    .fil4 {fill:#33CC99;fill-rule:nonzero}
    .fil3 {fill:white;fill-opacity:0.800000}
   ]]>
  </style>
 </defs>
 <g id="Layer_x0020_1">
  <metadata id="CorelCorpID_0Corel-Layer"/>
  <polygon class="fil0" points="1765.19,1253.46 1185.34,1253.46 1185.34,246.54 1765.19,246.54 1765.19,421.41 1398.76,421.41 1398.76,642.82 1739.57,642.82 1739.57,817.69 1398.76,817.69 1398.76,1077.18 1765.19,1077.18 "/>
  <path class="fil1" d="M570.16 230.3c-32.7,-19.25 -72.74,-26.06 -112.36,-15.88l-0.27 0.07c-39.7,10.28 -71.5,35.67 -90.77,68.41 -19.27,32.73 -26.07,72.82 -15.85,112.48l0.04 0.13c6.37,24.61 18.57,46.2 34.73,63.62 16.79,18.11 37.84,31.76 61.06,39.71 6.07,2.09 11.03,7.08 12.75,13.76l8.8 33.99c3.22,9.79 -1.66,20.56 -11.36,24.48 -21.98,8.94 -42.3,18.63 -60.63,28.8 -18.28,10.15 -34.69,20.76 -48.94,31.59 -1.17,1.06 -2.48,1.98 -3.92,2.77 -29.74,16 -52.68,41.57 -65.85,71.63 -12.89,29.44 -16.43,63.2 -7.81,96.49 13.86,53.56 27.97,107.13 41.66,160.72l-0.06 0.01 8 30.7 -0.06 0.01 2.21 8.31 -0.06 0.01c4.24,16.35 8.36,32.75 12.74,49.04l-0.06 0.02 11.22 43.1 -0.06 0.02c6.59,23.35 24.71,106.59 33.81,120.85 6.52,10.67 16.53,18.47 28.42,23.48 13.76,5.79 30.14,7.94 46.94,6.6l312.91 -23.06c1.8,-0.13 3.61,-0.4 5.4,-0.79l0.08 0c1.7,-0.36 3.45,-0.88 5.19,-1.52 1.14,-0.4 2.32,-0.72 3.56,-0.93l3.37 -0.69c12.85,-3.33 23.14,-13.08 29.75,-25.65 7.12,-13.52 9.92,-30.01 7.31,-45.58 -0.34,-2.03 -0.73,-3.89 -1.15,-5.52l-3.98 -15.37c-0.63,-2.43 -1.48,-4.95 -2.52,-7.52 -0.96,-2.38 -2.04,-4.57 -3.18,-6.56 -1.15,-1.94 -2,-4.11 -2.43,-6.46 -2,-10.71 5.06,-21.04 15.77,-23.04 42.07,-7.91 87.2,-14.8 128.63,-24.26 12.39,-2.87 22.81,-10.04 30.41,-19.61 8.48,-10.69 13.55,-24.32 14.19,-38.48 2.36,-64.38 -80.17,-321.47 -90.85,-362.76 -8.62,-33.28 -28.09,-61.07 -53.64,-80.56 -25.77,-19.65 -57.7,-30.85 -90.92,-30.75 -1.47,0.12 -2.99,0.08 -4.52,-0.14 -18.6,-2.78 -38.67,-4.22 -59.76,-4.22 -20.9,-0.01 -43.41,1.39 -67.11,4.25 -9.65,1.11 -18.91,-5.03 -21.41,-14.69l-8.82 -34.07c-2.09,-6.48 -0.76,-13.88 4.12,-19.3 16.5,-18.27 28.31,-40.44 34.19,-64.39 5.66,-23.05 5.87,-47.79 -0.46,-72.36l-0.04 -0.15c-10.28,-39.7 -35.67,-71.5 -68.41,-90.77z"/>
  <path class="fil0" d="M2339.55 1253.46l-242.56 -789.97 -6.11 0c8.7,160.77 13.16,267.94 13.16,321.54l0 468.43 -190.85 0 0 -1006.91 290.75 0 238.09 769.99 4.23 0 252.67 -769.99 290.74 0 0 1006.91 -199.08 0 0 -476.66c0,-22.33 0.47,-48.42 1.18,-77.8 0.47,-29.38 3.76,-107.41 9.17,-234.1l-6.11 0 -259.72 788.56 -195.55 0z"/>
  <polygon class="fil0" points="3595.53,1253.46 3137.67,1253.46 3137.67,1132.18 3260.36,1075.77 3260.36,424.24 3137.67,367.83 3137.67,246.54 3595.53,246.54 3595.53,367.83 3473.07,424.24 3473.07,1075.77 3595.53,1132.18 "/>
  <path class="fil0" d="M447.65 176.3c50.25,-13 101.02,-4.41 142.46,19.98 41.48,24.42 73.65,64.66 86.65,114.89 8.08,31.22 7.83,62.61 0.66,91.84 -6.59,26.82 -19.02,51.83 -36.18,73.19l2.26 8.73c18.65,-1.74 36.92,-2.59 54.61,-2.58 23.11,0 44.72,1.48 64.35,4.35 42.02,-0.09 82.34,14.03 114.81,38.79 32.31,24.63 56.94,59.84 67.87,102.05 27.57,106.51 74.7,245.01 91.15,354.67 0.19,0.94 0.32,1.88 0.38,2.83 0.41,3.21 0.58,6.44 0.63,9.67l0.07 0c-0.09,2.4 -0.04,4.8 -0.15,7.2 -0.99,22.5 -9.09,44.24 -22.67,61.35 -13.21,16.66 -31.59,29.06 -53.71,33.85 -35.1,5.99 -70.46,13.24 -105.5,19.84l3.8 14.66c0.81,3.13 1.45,6.11 1.92,8.92 4.04,24.06 -0.31,49.54 -11.33,70.47 -11.52,21.89 -30.38,39.11 -54.8,45.44l-4.76 1.09c-2.86,0.98 -5.86,1.81 -8.98,2.49 -3.48,0.77 -7.16,1.3 -10.96,1.57l-312.59 23.04c-22.76,1.83 -45.52,-1.32 -65.34,-9.68 -19.29,-8.13 -35.74,-21.14 -46.82,-39.25l-3.15 -5.52 -2.74 -5.72c-12.65,-32.51 -23.02,-84.3 -32.29,-120l-0.06 0.02c-3.85,-14.34 -7.39,-28.76 -11.11,-43.14l-0.06 0.02c-1.41,-5.24 -12.65,-49.58 -12.84,-49.52 -0.14,-0.54 -2.02,-8.36 -2.16,-8.32 -0.6,-2.35 -7.78,-30.76 -7.94,-30.71 -13.68,-53.54 -27.65,-107.05 -41.5,-160.56 -10.93,-42.21 -6.48,-84.94 9.81,-122.16 16.51,-37.69 45.17,-69.8 82.28,-90.08 15.95,-12.12 33.89,-23.75 53.44,-34.61 15.41,-8.55 31.81,-16.67 49.01,-24.22l-2.26 -8.74c-25.39,-10.36 -48.37,-26.19 -67.11,-46.4 -20.48,-22.08 -35.93,-49.43 -44,-80.63 -13,-50.25 -4.41,-101.02 19.98,-142.46 24.42,-41.48 64.66,-73.65 114.9,-86.66zm122.51 54c-32.7,-19.25 -72.74,-26.06 -112.36,-15.88l-0.27 0.07c-39.7,10.28 -71.5,35.67 -90.77,68.41 -19.27,32.73 -26.07,72.82 -15.85,112.48l0.04 0.13c6.37,24.61 18.57,46.2 34.73,63.62 16.79,18.11 37.84,31.76 61.06,39.71 6.07,2.09 11.03,7.08 12.75,13.76l8.8 33.99c3.22,9.79 -1.66,20.56 -11.36,24.48 -21.98,8.94 -42.3,18.63 -60.63,28.8 -18.28,10.15 -34.69,20.76 -48.94,31.59 -1.17,1.06 -2.48,1.98 -3.92,2.77 -29.74,16 -52.68,41.57 -65.85,71.63 -12.89,29.44 -16.43,63.2 -7.81,96.49 13.86,53.56 27.97,107.13 41.66,160.72l-0.06 0.01 8 30.7 -0.06 0.01 2.21 8.31 -0.06 0.01c4.24,16.35 8.36,32.75 12.74,49.04l-0.06 0.02 11.22 43.1 -0.06 0.02c6.59,23.35 24.71,106.59 33.81,120.85 6.52,10.67 16.53,18.47 28.42,23.48 13.76,5.79 30.14,7.94 46.94,6.6l312.91 -23.06c1.8,-0.13 3.61,-0.4 5.4,-0.79l0.08 0c1.7,-0.36 3.45,-0.88 5.19,-1.52 1.14,-0.4 2.32,-0.72 3.56,-0.93l3.37 -0.69c12.85,-3.33 23.14,-13.08 29.75,-25.65 7.12,-13.52 9.92,-30.01 7.31,-45.58 -0.34,-2.03 -0.73,-3.89 -1.15,-5.52l-3.98 -15.37c-0.63,-2.43 -1.48,-4.95 -2.52,-7.52 -0.96,-2.38 -2.04,-4.57 -3.18,-6.56 -1.15,-1.94 -2,-4.11 -2.43,-6.46 -2,-10.71 5.06,-21.04 15.77,-23.04 42.07,-7.91 87.2,-14.8 128.63,-24.26 12.39,-2.87 22.81,-10.04 30.41,-19.61 8.48,-10.69 13.55,-24.32 14.19,-38.48 2.36,-64.38 -80.17,-321.47 -90.85,-362.76 -8.62,-33.28 -28.09,-61.07 -53.64,-80.56 -25.77,-19.65 -57.7,-30.85 -90.92,-30.75 -1.47,0.12 -2.99,0.08 -4.52,-0.14 -18.6,-2.78 -38.67,-4.22 -59.76,-4.22 -20.9,-0.01 -43.41,1.39 -67.11,4.25 -9.65,1.11 -18.91,-5.03 -21.41,-14.69l-8.82 -34.07c-2.09,-6.48 -0.76,-13.88 4.12,-19.3 16.5,-18.27 28.31,-40.44 34.19,-64.39 5.66,-23.05 5.87,-47.79 -0.46,-72.36l-0.04 -0.15c-10.28,-39.7 -35.67,-71.5 -68.41,-90.77z"/>
  <rect class="fil2" transform="matrix(1.18218 -0.306015 0.332906 1.28607 504.781 653.955)" width="105.46" height="668.8" rx="52.73" ry="52.73"/>
  <path class="fil1" d="M954.51 1078.21l-320.79 60.3c-45.44,8.54 -90.92,-15.57 -102.52,-60.36l-3.97 -15.35c-11.59,-44.8 14.81,-94.52 60.37,-102.54l204.33 -35.94 162.57 153.9z"/>
  <path class="fil0" d="M950.88 1058.81c10.71,-2 21.04,5.05 23.04,15.77 2,10.71 -5.06,21.03 -15.77,23.04l-320.79 60.3c-27.86,5.23 -55.87,0.2 -78.57,-13.16 -22.37,-13.17 -39.6,-34.32 -46.68,-61.66l-4.18 -16.27c-0.69,-2.72 -1.22,-5.13 -1.58,-7.18 -4.43,-25.11 0.57,-50.96 12.8,-72.15 12.51,-21.68 32.59,-38.57 57.99,-45.14 2.72,-0.7 5.09,-1.24 7.08,-1.59l204.33 -35.94c10.76,-1.87 21.01,5.32 22.88,16.08 1.87,10.76 -5.32,21.01 -16.08,22.88l-204.33 35.94 -3.98 0.81c-14.61,3.78 -26.3,13.74 -33.71,26.58 -7.7,13.34 -10.83,29.72 -8.02,45.71 0,3.59 4.21,17.3 5,20.35 4.3,16.63 14.81,29.51 28.44,37.54 14.65,8.61 32.95,11.82 51.35,8.37l320.79 -60.3z"/>
  <path class="fil2" d="M405.01 11.56c192.22,-49.76 388.39,65.73 438.15,257.96 49.76,192.22 -65.73,388.39 -257.95,438.15 -192.23,49.76 -388.39,-65.73 -438.15,-257.96 -49.76,-192.23 65.73,-388.39 257.96,-438.15zm23.36 90.25c142.39,-36.86 287.68,48.68 324.54,191.07 36.86,142.39 -48.68,287.68 -191.07,324.54 -142.39,36.85 -287.69,-48.68 -324.54,-191.07 -36.86,-142.39 48.68,-287.68 191.07,-324.54z"/>
  <path class="fil3" d="M428.37 101.81c142.39,-36.85 287.68,48.69 324.54,191.07 36.85,142.38 -48.69,287.68 -191.07,324.54 -142.38,36.86 -287.68,-48.68 -324.54,-191.07 -36.86,-142.39 48.69,-287.68 191.07,-324.54z"/>
  <path class="fil1" d="M480.62 885.68l-196.47 50.85c30.02,115.98 39.36,152.06 69.39,268.04 11.59,44.8 56.43,64.04 102.52,60.36l323.61 -25.87c46.09,-3.69 71.94,-57.76 60.35,-102.52l-3.98 -15.37c-11.59,-44.76 -56.35,-63.53 -102.51,-60.36l-203.95 13.97 -48.95 -189.12z"/>
  <path class="fil0" d="M461.52 890.63c-2.73,-10.54 3.61,-21.31 14.15,-24.04 10.54,-2.73 21.31,3.61 24.04,14.15l44.85 173.23 187.65 -12.85c28.08,-1.93 56.05,3.38 78.5,16.6 21.3,12.54 37.52,31.88 44.41,58.53l3.98 15.37c1.59,6.14 2.61,12.24 3.08,18.19 1.82,22.71 -3.55,46.06 -14.67,65.13 -11.68,20.02 -29.7,35.58 -52.62,41.51l-1 0.23c-4.28,1.06 -8.53,1.78 -12.69,2.11l-323.61 25.87c-28.05,2.24 -56.03,-3.04 -78.53,-16.29 -21.4,-12.59 -37.72,-32.09 -44.63,-58.83l-69.39 -268.04c-2.73,-10.54 3.61,-21.31 14.15,-24.04 10.54,-2.73 21.31,3.61 24.04,14.15l69.39 268.04c4.07,15.74 13.73,27.26 26.39,34.71 15.26,8.99 35.08,12.51 55.48,10.88l323.61 -25.87c2.34,-0.19 4.44,-0.5 6.29,-0.94l0.59 -0.17c11.99,-3.1 21.75,-11.8 28.35,-23.11 7.16,-12.27 10.6,-27.43 9.42,-42.24 -0.32,-4.02 -0.94,-7.85 -1.85,-11.39l-3.98 -15.37c-4.04,-15.64 -13.61,-27.01 -26.17,-34.41 -15.35,-9.04 -35.33,-12.6 -55.94,-11.19l-203.94 13.97c-9.28,0.6 -17.99,-5.44 -20.41,-14.76l-48.96 -189.11z"/>
  <path class="fil4" d="M634.05 435.84c-4.44,-3.98 -10.13,-5.79 -15.72,-5.49 -5.5,0.3 -10.9,2.7 -14.86,7.11 -3.98,4.44 -5.79,10.13 -5.49,15.72 0.3,5.5 2.7,10.91 7.11,14.87l0.08 0c4.44,3.98 10.09,5.79 15.63,5.49 5.5,-0.3 10.91,-2.7 14.87,-7.11 3.98,-4.44 5.79,-10.13 5.49,-15.71 -0.3,-5.51 -2.7,-10.91 -7.11,-14.87zm254.3 -291.15c12.56,-11.26 28.46,-16.38 44.01,-15.54 15.62,0.84 30.94,7.67 42.23,20.25 11.26,12.56 16.38,28.46 15.54,44.01 -0.84,15.6 -7.65,30.9 -20.2,42.19 -12.52,11.31 -28.47,16.42 -44.05,15.58 -9.26,-0.5 -18.43,-3.11 -26.71,-7.78l-220.25 194.05c0.91,3.7 1.46,7.47 1.67,11.26 0.84,15.54 -4.28,31.45 -15.54,44 -11.29,12.59 -26.61,19.41 -42.23,20.25 -15.58,0.84 -31.53,-4.28 -44.08,-15.54 -12.52,-11.32 -19.33,-26.63 -20.17,-42.23 -0.67,-12.37 2.44,-24.95 9.4,-35.91l-116.3 -167.55c-6.78,2.96 -13.98,4.65 -21.26,5.05 -10,0.55 -20.15,-1.39 -29.46,-5.83l-168.83 150.51c-2.69,-16.8 -3.73,-33.56 -3.23,-50.07l143.73 -128.13c-3.84,-7.61 -6.01,-15.89 -6.46,-24.24 -0.84,-15.54 4.28,-31.45 15.54,-44.01 11.29,-12.59 26.61,-19.41 42.23,-20.25 15.54,-0.84 31.45,4.28 44,15.54l0.85 0.69c12.04,11.19 18.57,26.2 19.4,41.54 0.59,10.99 -1.8,22.17 -7.23,32.21l117.83 169.76c5.67,-2.05 11.59,-3.25 17.55,-3.57 14.29,-0.77 28.88,3.5 40.9,12.93l215.6 -189.95c-3.65,-8.62 -5.21,-17.87 -4.72,-26.99 0.84,-15.62 7.67,-30.94 20.25,-42.23zm-734.89 326.89l-36.56 32.59c3.08,6.89 4.83,14.24 5.23,21.66 0.84,15.54 -4.28,31.46 -15.54,44.01 -11.29,12.59 -26.61,19.41 -42.23,20.25 -15.54,0.84 -31.44,-4.28 -44,-15.54l-0.85 -0.7c-12.03,-11.19 -18.57,-26.19 -19.4,-41.54 -0.84,-15.54 4.28,-31.44 15.54,-44l0.72 -0.83c11.24,-12.05 26.23,-18.59 41.52,-19.43 10.95,-0.59 22.08,1.78 32.09,7.17l52.3 -46.62c1.38,7.04 2.98,14.07 4.8,21.11 1.92,7.41 4.06,14.7 6.4,21.87zm776.89 -303.01c-5.59,-0.3 -11.28,1.51 -15.72,5.49 -4.41,3.96 -6.81,9.36 -7.11,14.87 -0.3,5.58 1.51,11.27 5.49,15.71 3.96,4.41 9.37,6.81 14.87,7.11 5.54,0.3 11.2,-1.51 15.63,-5.49l0.08 0c4.41,-3.96 6.81,-9.36 7.11,-14.87 0.3,-5.59 -1.51,-11.28 -5.49,-15.72 -3.96,-4.41 -9.36,-6.81 -14.87,-7.11zm-504.42 5.61c-5.51,0.3 -10.91,2.7 -14.87,7.11 -3.98,4.44 -5.79,10.13 -5.49,15.72 0.3,5.51 2.7,10.91 7.11,14.87 4.44,3.98 10.12,5.79 15.71,5.49 5.51,-0.3 10.91,-2.7 14.87,-7.12l0.7 -0.85c3.5,-4.3 5.07,-9.63 4.8,-14.86 -0.29,-5.46 -2.72,-10.86 -7.19,-14.87l-0.77 -0.7c-4.3,-3.5 -9.63,-5.08 -14.87,-4.8zm-366.05 333.3c-5.51,0.3 -10.91,2.7 -14.87,7.12l-0.7 0.85c-3.5,4.3 -5.07,9.63 -4.8,14.87 0.29,5.46 2.72,10.85 7.19,14.87l0.77 0.69c4.3,3.51 9.63,5.08 14.87,4.8 5.51,-0.3 10.91,-2.7 14.87,-7.11 3.98,-4.44 5.79,-10.13 5.49,-15.72 -0.3,-5.51 -2.7,-10.91 -7.11,-14.87 -4.44,-3.98 -10.13,-5.79 -15.71,-5.49z"/>
 </g>
</svg>
