<?xml version="1.0" encoding="UTF-8"?>
<!DOCTYPE svg PUBLIC "-//W3C//DTD SVG 1.1//EN" "http://www.w3.org/Graphics/SVG/1.1/DTD/svg11.dtd">
<!-- Creator: CorelDRAW 2021 (64-Bit) -->
<svg xmlns="http://www.w3.org/2000/svg" xml:space="preserve" width="1.03734in" height="1.5in" version="1.1" style="shape-rendering:geometricPrecision; text-rendering:geometricPrecision; image-rendering:optimizeQuality; fill-rule:evenodd; clip-rule:evenodd"
viewBox="0 0 299.28 432.76"
 xmlns:xlink="http://www.w3.org/1999/xlink"
 xmlns:xodm="http://www.corel.com/coreldraw/odm/2003">
 <defs>
  <style type="text/css">
   <![CDATA[
    .fil2 {fill:#142059}
    .fil0 {fill:#DCF0FA}
    .fil1 {fill:#142059;fill-rule:nonzero}
    .fil4 {fill:#33CC99;fill-rule:nonzero}
    .fil3 {fill:white;fill-opacity:0.800000}
   ]]>
  </style>
 </defs>
 <g id="Layer_x0020_1">
  <metadata id="CorelCorpID_0Corel-Layer"/>
  <path class="fil0" d="M164.5 66.44c-9.43,-5.55 -20.99,-7.52 -32.42,-4.58l-0.08 0.02c-11.46,2.96 -20.63,10.29 -26.19,19.74 -5.56,9.44 -7.52,21.01 -4.57,32.45l0.01 0.04c1.84,7.1 5.36,13.33 10.02,18.35 4.84,5.23 10.92,9.16 17.62,11.46 1.75,0.6 3.18,2.04 3.68,3.97l2.54 9.81c0.93,2.82 -0.48,5.93 -3.28,7.06 -6.34,2.58 -12.2,5.37 -17.49,8.31 -5.27,2.93 -10.01,5.99 -14.12,9.11 -0.34,0.3 -0.71,0.57 -1.13,0.8 -8.58,4.62 -15.2,11.99 -19,20.67 -3.72,8.49 -4.74,18.23 -2.25,27.84 4,15.45 8.07,30.91 12.02,46.37l-0.02 0 2.31 8.86 -0.02 0 0.64 2.4 -0.02 0c1.22,4.72 2.41,9.45 3.67,14.15l-0.02 0 3.24 12.44 -0.02 0c1.9,6.74 7.13,30.75 9.75,34.87 1.88,3.08 4.77,5.33 8.2,6.77 3.97,1.67 8.7,2.29 13.54,1.9l90.28 -6.65c0.52,-0.04 1.04,-0.11 1.56,-0.23l0.02 0c0.49,-0.1 1,-0.25 1.5,-0.44 0.33,-0.12 0.67,-0.21 1.03,-0.27l0.97 -0.2c3.71,-0.96 6.68,-3.77 8.58,-7.4 2.05,-3.9 2.86,-8.66 2.11,-13.15 -0.1,-0.59 -0.21,-1.12 -0.33,-1.59l-1.15 -4.43c-0.18,-0.7 -0.43,-1.43 -0.73,-2.17 -0.28,-0.69 -0.59,-1.32 -0.92,-1.89 -0.33,-0.56 -0.58,-1.19 -0.7,-1.86 -0.58,-3.09 1.46,-6.07 4.55,-6.65 12.14,-2.28 25.16,-4.27 37.11,-7 3.58,-0.83 6.58,-2.9 8.77,-5.66 2.45,-3.08 3.91,-7.02 4.09,-11.1 0.68,-18.57 -23.13,-92.75 -26.21,-104.66 -2.49,-9.6 -8.1,-17.62 -15.48,-23.24 -7.43,-5.67 -16.65,-8.9 -26.23,-8.87 -0.42,0.04 -0.86,0.02 -1.3,-0.04 -5.37,-0.8 -11.16,-1.22 -17.24,-1.22 -6.03,-0 -12.52,0.4 -19.36,1.23 -2.78,0.32 -5.46,-1.45 -6.18,-4.24l-2.54 -9.83c-0.6,-1.87 -0.22,-4 1.19,-5.57 4.76,-5.27 8.17,-11.67 9.86,-18.58 1.63,-6.65 1.69,-13.79 -0.13,-20.88l-0.01 -0.04c-2.96,-11.45 -10.29,-20.63 -19.74,-26.19z"/>
  <path class="fil1" d="M129.15 50.86c14.5,-3.75 29.15,-1.27 41.1,5.77 11.97,7.04 21.25,18.65 25,33.15 2.33,9.01 2.26,18.06 0.19,26.5 -1.9,7.74 -5.49,14.95 -10.44,21.12l0.65 2.52c5.38,-0.5 10.65,-0.75 15.76,-0.74 6.67,0 12.9,0.43 18.57,1.26 12.12,-0.03 23.76,4.05 33.12,11.19 9.32,7.11 16.43,17.27 19.58,29.44 7.95,30.73 21.55,70.69 26.3,102.33 0.06,0.27 0.09,0.54 0.11,0.82 0.12,0.93 0.17,1.86 0.18,2.79l0.02 0c-0.03,0.69 -0.01,1.38 -0.04,2.08 -0.29,6.49 -2.62,12.76 -6.54,17.7 -3.81,4.81 -9.11,8.38 -15.5,9.76 -10.13,1.73 -20.33,3.82 -30.44,5.72l1.1 4.23c0.23,0.9 0.42,1.76 0.55,2.57 1.16,6.94 -0.09,14.29 -3.27,20.33 -3.32,6.32 -8.76,11.28 -15.81,13.11l-1.37 0.31c-0.83,0.28 -1.69,0.52 -2.59,0.72 -1.01,0.22 -2.06,0.37 -3.16,0.45l-90.19 6.65c-6.57,0.53 -13.13,-0.38 -18.85,-2.79 -5.56,-2.34 -10.31,-6.1 -13.51,-11.32l-0.91 -1.59 -0.79 -1.65c-3.65,-9.38 -6.64,-24.32 -9.32,-34.62l-0.02 0.01c-1.11,-4.14 -2.13,-8.3 -3.2,-12.45l-0.02 0.01c-0.41,-1.51 -3.65,-14.31 -3.7,-14.29 -0.04,-0.16 -0.58,-2.41 -0.62,-2.4 -0.17,-0.68 -2.24,-8.88 -2.29,-8.86 -3.95,-15.45 -7.98,-30.88 -11.97,-46.32 -3.15,-12.18 -1.87,-24.51 2.83,-35.24 4.76,-10.87 13.03,-20.14 23.74,-25.99 4.6,-3.5 9.78,-6.85 15.42,-9.99 4.45,-2.47 9.18,-4.81 14.14,-6.99l-0.65 -2.52c-7.33,-2.99 -13.96,-7.55 -19.36,-13.39 -5.91,-6.37 -10.37,-14.26 -12.7,-23.26 -3.75,-14.5 -1.27,-29.15 5.77,-41.1 7.04,-11.97 18.65,-21.25 33.15,-25zm35.35 15.58c-9.43,-5.55 -20.99,-7.52 -32.42,-4.58l-0.08 0.02c-11.46,2.96 -20.63,10.29 -26.19,19.74 -5.56,9.44 -7.52,21.01 -4.57,32.45l0.01 0.04c1.84,7.1 5.36,13.33 10.02,18.35 4.84,5.23 10.92,9.16 17.62,11.46 1.75,0.6 3.18,2.04 3.68,3.97l2.54 9.81c0.93,2.82 -0.48,5.93 -3.28,7.06 -6.34,2.58 -12.2,5.37 -17.49,8.31 -5.27,2.93 -10.01,5.99 -14.12,9.11 -0.34,0.3 -0.71,0.57 -1.13,0.8 -8.58,4.62 -15.2,11.99 -19,20.67 -3.72,8.49 -4.74,18.23 -2.25,27.84 4,15.45 8.07,30.91 12.02,46.37l-0.02 0 2.31 8.86 -0.02 0 0.64 2.4 -0.02 0c1.22,4.72 2.41,9.45 3.67,14.15l-0.02 0 3.24 12.44 -0.02 0c1.9,6.74 7.13,30.75 9.75,34.87 1.88,3.08 4.77,5.33 8.2,6.77 3.97,1.67 8.7,2.29 13.54,1.9l90.28 -6.65c0.52,-0.04 1.04,-0.11 1.56,-0.23l0.02 0c0.49,-0.1 1,-0.25 1.5,-0.44 0.33,-0.12 0.67,-0.21 1.03,-0.27l0.97 -0.2c3.71,-0.96 6.68,-3.77 8.58,-7.4 2.05,-3.9 2.86,-8.66 2.11,-13.15 -0.1,-0.59 -0.21,-1.12 -0.33,-1.59l-1.15 -4.43c-0.18,-0.7 -0.43,-1.43 -0.73,-2.17 -0.28,-0.69 -0.59,-1.32 -0.92,-1.89 -0.33,-0.56 -0.58,-1.19 -0.7,-1.86 -0.58,-3.09 1.46,-6.07 4.55,-6.65 12.14,-2.28 25.16,-4.27 37.11,-7 3.58,-0.83 6.58,-2.9 8.77,-5.66 2.45,-3.08 3.91,-7.02 4.09,-11.1 0.68,-18.57 -23.13,-92.75 -26.21,-104.66 -2.49,-9.6 -8.1,-17.62 -15.48,-23.24 -7.43,-5.67 -16.65,-8.9 -26.23,-8.87 -0.42,0.04 -0.86,0.02 -1.3,-0.04 -5.37,-0.8 -11.16,-1.22 -17.24,-1.22 -6.03,-0 -12.52,0.4 -19.36,1.23 -2.78,0.32 -5.46,-1.45 -6.18,-4.24l-2.54 -9.83c-0.6,-1.87 -0.22,-4 1.19,-5.57 4.76,-5.27 8.17,-11.67 9.86,-18.58 1.63,-6.65 1.69,-13.79 -0.13,-20.88l-0.01 -0.04c-2.96,-11.45 -10.29,-20.63 -19.74,-26.19z"/>
  <rect class="fil2" transform="matrix(1.18218 -0.306015 0.332906 1.28607 145.634 188.672)" width="30.43" height="192.95" rx="15.21" ry="15.21"/>
  <path class="fil0" d="M275.39 311.07l-92.55 17.4c-13.11,2.46 -26.23,-4.49 -29.58,-17.42l-1.14 -4.43c-3.35,-12.92 4.27,-27.27 17.42,-29.58l58.95 -10.37 46.9 44.4z"/>
  <path class="fil1" d="M274.34 305.47c3.09,-0.58 6.07,1.46 6.65,4.55 0.58,3.09 -1.46,6.07 -4.55,6.65l-92.55 17.4c-8.04,1.51 -16.12,0.06 -22.67,-3.8 -6.45,-3.8 -11.42,-9.9 -13.47,-17.79l-1.21 -4.69c-0.2,-0.78 -0.35,-1.48 -0.46,-2.07 -1.28,-7.24 0.16,-14.7 3.69,-20.81 3.61,-6.25 9.4,-11.13 16.73,-13.02 0.79,-0.2 1.47,-0.36 2.04,-0.46l58.95 -10.37c3.1,-0.54 6.06,1.54 6.6,4.64 0.54,3.1 -1.54,6.06 -4.64,6.6l-58.95 10.37 -1.15 0.24c-4.22,1.09 -7.59,3.96 -9.73,7.67 -2.22,3.85 -3.12,8.57 -2.31,13.19 0,1.04 1.22,4.99 1.44,5.87 1.24,4.8 4.27,8.51 8.21,10.83 4.23,2.49 9.51,3.41 14.82,2.41l92.55 -17.4z"/>
  <path class="fil2" d="M116.85 3.33c55.46,-14.36 112.05,18.96 126.41,74.42 14.36,55.46 -18.96,112.05 -74.42,126.41 -55.46,14.36 -112.05,-18.96 -126.41,-74.42 -14.36,-55.46 18.96,-112.05 74.42,-126.41zm6.74 26.04c41.08,-10.63 83,14.05 93.63,55.13 10.63,41.08 -14.05,83 -55.13,93.63 -41.08,10.63 -83,-14.05 -93.63,-55.13 -10.63,-41.08 14.05,-83 55.13,-93.63z"/>
  <path class="fil3" d="M123.59 29.37c41.08,-10.63 83,14.05 93.63,55.13 10.63,41.08 -14.05,83 -55.13,93.63 -41.08,10.63 -83,-14.05 -93.63,-55.13 -10.63,-41.08 14.05,-83 55.13,-93.63z"/>
  <path class="fil0" d="M138.66 255.53l-56.68 14.67c8.66,33.46 11.36,43.87 20.02,77.33 3.35,12.92 16.28,18.48 29.58,17.41l93.36 -7.46c13.3,-1.06 20.75,-16.66 17.41,-29.58l-1.15 -4.43c-3.34,-12.91 -16.26,-18.33 -29.58,-17.41l-58.84 4.03 -14.12 -54.56z"/>
  <path class="fil1" d="M133.15 256.95c-0.79,-3.04 1.04,-6.15 4.08,-6.94 3.04,-0.79 6.15,1.04 6.94,4.08l12.94 49.98 54.14 -3.71c8.1,-0.56 16.17,0.97 22.65,4.79 6.15,3.62 10.82,9.2 12.81,16.89l1.15 4.43c0.46,1.77 0.75,3.53 0.89,5.25 0.52,6.55 -1.02,13.29 -4.23,18.79 -3.37,5.78 -8.57,10.27 -15.18,11.98l-0.29 0.07c-1.24,0.3 -2.46,0.51 -3.66,0.61l-93.36 7.46c-8.09,0.65 -16.17,-0.88 -22.66,-4.7 -6.17,-3.63 -10.88,-9.26 -12.88,-16.97l-20.02 -77.33c-0.79,-3.04 1.04,-6.15 4.08,-6.94 3.04,-0.79 6.15,1.04 6.94,4.08l20.02 77.33c1.18,4.54 3.96,7.86 7.61,10.01 4.4,2.59 10.12,3.61 16.01,3.14l93.36 -7.46c0.67,-0.05 1.28,-0.15 1.82,-0.27l0.17 -0.05c3.46,-0.89 6.27,-3.4 8.18,-6.67 2.06,-3.54 3.06,-7.91 2.72,-12.19 -0.09,-1.16 -0.27,-2.26 -0.53,-3.29l-1.15 -4.43c-1.17,-4.51 -3.93,-7.79 -7.55,-9.93 -4.43,-2.61 -10.19,-3.64 -16.14,-3.23l-58.84 4.03c-2.68,0.17 -5.19,-1.57 -5.89,-4.26l-14.12 -54.56z"/>
  <path class="fil4" d="M182.93 125.74c-1.28,-1.15 -2.92,-1.67 -4.54,-1.58 -1.59,0.09 -3.15,0.78 -4.29,2.05 -1.15,1.28 -1.67,2.92 -1.58,4.53 0.09,1.59 0.78,3.15 2.05,4.29l0.02 0c1.28,1.15 2.91,1.67 4.51,1.58 1.59,-0.09 3.15,-0.78 4.29,-2.05 1.15,-1.28 1.67,-2.92 1.58,-4.53 -0.09,-1.59 -0.78,-3.15 -2.05,-4.29zm73.37 -84c3.62,-3.25 8.21,-4.73 12.7,-4.48 4.51,0.24 8.93,2.21 12.18,5.84 3.25,3.62 4.73,8.21 4.48,12.7 -0.24,4.5 -2.21,8.92 -5.83,12.17 -3.61,3.26 -8.21,4.74 -12.71,4.5 -2.67,-0.14 -5.32,-0.9 -7.71,-2.24l-63.54 55.98c0.26,1.07 0.42,2.15 0.48,3.25 0.24,4.48 -1.24,9.07 -4.48,12.7 -3.26,3.63 -7.68,5.6 -12.18,5.84 -4.5,0.24 -9.1,-1.23 -12.72,-4.48 -3.61,-3.27 -5.58,-7.68 -5.82,-12.18 -0.19,-3.57 0.7,-7.2 2.71,-10.36l-33.55 -48.34c-1.95,0.85 -4.03,1.34 -6.13,1.46 -2.88,0.16 -5.81,-0.4 -8.5,-1.68l-48.71 43.42c-0.78,-4.85 -1.08,-9.68 -0.93,-14.45l41.47 -36.97c-1.11,-2.2 -1.73,-4.58 -1.86,-6.99 -0.24,-4.48 1.23,-9.07 4.48,-12.7 3.26,-3.63 7.68,-5.6 12.18,-5.84 4.48,-0.24 9.07,1.24 12.7,4.48l0.24 0.2c3.47,3.23 5.36,7.56 5.6,11.98 0.17,3.17 -0.52,6.4 -2.09,9.29l34 48.98c1.64,-0.59 3.34,-0.94 5.06,-1.03 4.12,-0.22 8.33,1.01 11.8,3.73l62.2 -54.8c-1.05,-2.49 -1.5,-5.15 -1.36,-7.79 0.24,-4.51 2.21,-8.93 5.84,-12.18zm-212.02 94.31l-10.55 9.4c0.89,1.99 1.39,4.11 1.51,6.25 0.24,4.48 -1.24,9.08 -4.48,12.7 -3.26,3.63 -7.68,5.6 -12.18,5.84 -4.48,0.24 -9.07,-1.23 -12.7,-4.48l-0.24 -0.2c-3.47,-3.23 -5.36,-7.56 -5.6,-11.98 -0.24,-4.48 1.23,-9.07 4.48,-12.69l0.21 -0.24c3.24,-3.48 7.57,-5.36 11.98,-5.61 3.16,-0.17 6.37,0.51 9.26,2.07l15.09 -13.45c0.4,2.03 0.86,4.06 1.38,6.09 0.55,2.14 1.17,4.24 1.85,6.31zm224.14 -87.42c-1.61,-0.09 -3.25,0.44 -4.53,1.58 -1.27,1.14 -1.97,2.7 -2.05,4.29 -0.09,1.61 0.44,3.25 1.58,4.53 1.14,1.27 2.7,1.97 4.29,2.05 1.6,0.09 3.23,-0.44 4.51,-1.58l0.02 0c1.27,-1.14 1.97,-2.7 2.05,-4.29 0.09,-1.61 -0.44,-3.25 -1.58,-4.53 -1.14,-1.27 -2.7,-1.97 -4.29,-2.05zm-145.53 1.62c-1.59,0.09 -3.15,0.78 -4.29,2.05 -1.15,1.28 -1.67,2.92 -1.58,4.54 0.09,1.59 0.78,3.15 2.05,4.29 1.28,1.15 2.92,1.67 4.53,1.58 1.59,-0.09 3.15,-0.78 4.29,-2.05l0.2 -0.24c1.01,-1.24 1.46,-2.78 1.38,-4.29 -0.08,-1.58 -0.78,-3.13 -2.07,-4.29l-0.22 -0.2c-1.24,-1.01 -2.78,-1.47 -4.29,-1.38zm-105.61 96.16c-1.59,0.09 -3.15,0.78 -4.29,2.05l-0.2 0.24c-1.01,1.24 -1.46,2.78 -1.38,4.29 0.08,1.57 0.78,3.13 2.07,4.29l0.22 0.2c1.24,1.01 2.78,1.47 4.29,1.39 1.59,-0.09 3.15,-0.78 4.29,-2.05 1.15,-1.28 1.67,-2.92 1.58,-4.53 -0.09,-1.59 -0.78,-3.15 -2.05,-4.29 -1.28,-1.15 -2.92,-1.67 -4.53,-1.58z"/>
 </g>
</svg>
